<svg xmlns="http://www.w3.org/2000/svg" viewBox="0 0 1024 1024"><style>.shp{fill:#171822}@media (prefers-color-scheme:dark){.shp{fill:#fff}}</style><rect class="shp" height="135.067" rx="22.622" width="618.797" x="201.824" y="887.933"/><path class="shp" d="M520.214 777.017c-61.994 0-117.023-10.459-165.086-31.379-47.367-20.919-84.285-49.857-110.754-86.815-26.47-37.655-39.704-80.54-39.704-128.654v-1.046c0-5.579 2.089-10.46 6.269-14.644 4.179-4.184 9.055-6.276 14.628-6.276h156.727c5.573 0 10.449 2.092 14.628 6.276s6.269 9.065 6.269 14.644v1.046c0 16.735 4.18 30.681 12.538 41.838 9.056 10.46 22.291 18.479 39.705 24.058 17.414 5.578 39.356 8.368 65.825 8.368 33.436 0 59.557-5.579 78.364-16.736 19.504-11.157 29.256-26.498 29.256-46.023 0-14.643-5.224-26.149-15.673-34.517-10.448-8.367-27.863-14.992-52.242-19.873l-142.1-27.195c-65.477-12.552-114.237-37.655-146.279-75.31-31.346-37.655-47.018-85.072-47.018-142.252 0-46.72 12.189-88.21 36.569-124.47 25.077-36.26 59.905-64.502 104.485-84.724C411.898 13.111 463.793 3 522.304 3c58.512 0 110.058 9.762 154.638 29.287 44.58 18.828 79.06 45.674 103.44 80.54 24.38 34.168 36.57 73.566 36.57 118.194v1.046c0 5.579-2.09 10.46-6.269 14.644-4.18 4.184-9.055 6.276-14.628 6.276H644.552c-5.573 0-10.449-2.092-14.628-6.276-4.18-4.184-6.269-9.065-6.269-14.644v-1.046c0-17.432-9.404-31.03-28.211-40.792-18.111-9.763-43.187-14.644-75.23-14.644-30.649 0-54.68 4.881-72.094 14.644-17.414 9.065-26.122 21.616-26.122 37.654 0 13.249 5.225 24.058 15.673 32.426 10.449 8.367 27.166 14.992 50.153 19.873l146.279 27.195c61.298 11.157 107.968 35.912 140.01 74.264 32.042 37.655 48.063 85.072 48.063 142.252 0 49.509-12.19 93.44-36.57 131.792-23.683 37.655-58.163 67.291-103.44 88.907-45.277 21.617-99.261 32.425-161.952 32.425z"/></svg>